<svg width="68" height="70" viewBox="0 0 68 70" fill="none" xmlns="http://www.w3.org/2000/svg">
<path d="M2.28125 45.9375H17.5938V67.8125H2.28125V45.9375Z" stroke="#FFC72C" stroke-width="3.125" stroke-linecap="round" stroke-linejoin="round"/>
<path d="M50.4062 54.6875H65.7188V67.8125H50.4062V54.6875Z" stroke="#FFC72C" stroke-width="3.125" stroke-linecap="round" stroke-linejoin="round"/>
<path d="M26.3438 37.1875H41.6563V67.8125H26.3438V37.1875Z" stroke="#FFC72C" stroke-width="3.125" stroke-linecap="round" stroke-linejoin="round"/>
<path d="M36.6396 3.13839L40.2825 10.2988H46.4862C46.8277 10.2905 47.1638 10.3854 47.4505 10.5711C47.7373 10.7568 47.9613 11.0247 48.0933 11.3398C48.2253 11.6549 48.2592 12.0025 48.1905 12.3371C48.1218 12.6717 47.9538 12.9779 47.7083 13.2155L42.0121 18.8096L45.1679 26.0576C45.307 26.3895 45.3383 26.7568 45.2575 27.1075C45.1766 27.4582 44.9876 27.7747 44.7172 28.0122C44.4468 28.2497 44.1086 28.3963 43.7504 28.4313C43.3922 28.4663 43.0321 28.3879 42.7208 28.2071L35.0937 23.9167L27.4666 28.2071C27.1554 28.3879 26.7952 28.4663 26.437 28.4313C26.0788 28.3963 25.7406 28.2497 25.4702 28.0122C25.1998 27.7747 25.0108 27.4582 24.93 27.1075C24.8491 26.7568 24.8805 26.3895 25.0196 26.0576L28.1666 18.8096L22.4791 13.2038C22.2337 12.9662 22.0656 12.6601 21.9969 12.3254C21.9283 11.9908 21.9621 11.6432 22.0942 11.3281C22.2262 11.0131 22.4502 10.7451 22.7369 10.5594C23.0236 10.3737 23.3597 10.2788 23.7012 10.2871H29.9166L33.5596 3.12672C33.7064 2.84447 33.9281 2.6081 34.2004 2.44353C34.4726 2.27896 34.785 2.19253 35.1031 2.19374C35.4213 2.19494 35.7329 2.28373 36.004 2.45036C36.275 2.61699 36.4949 2.85504 36.6396 3.13839V3.13839Z" stroke="#FFC72C" stroke-width="3.125" stroke-linecap="round" stroke-linejoin="round"/>
</svg>
